<svg xmlns="http://www.w3.org/2000/svg" viewBox="0 0 64 64">
  <defs>
    <linearGradient id="g" x1="0%" y1="0%" x2="100%" y2="100%">
      <stop offset="0%" stop-color="#0e5c63" />
      <stop offset="100%" stop-color="#c46d4f" />
    </linearGradient>
  </defs>
  <rect width="64" height="64" rx="18" fill="#f7f2e8" />
  <rect x="7" y="7" width="50" height="50" rx="14" fill="url(#g)" />
  <path
    d="M40.2 21.2c-2.3-2.1-5.1-3.2-8.4-3.2-3.8 0-6.9 1.2-9.3 3.7-2.4 2.5-3.6 5.7-3.6 9.8 0 4 1.2 7.2 3.5 9.7 2.4 2.5 5.4 3.8 9.2 3.8 3.5 0 6.5-1.2 9-3.6l-3.2-3.8c-1.6 1.5-3.4 2.3-5.5 2.3-2.2 0-4-.7-5.3-2.1-1.3-1.4-2-3.2-2-5.5 0-2.4.7-4.3 2.1-5.8 1.4-1.5 3.2-2.2 5.3-2.2 2 0 3.8.7 5.4 2.1l2.8-5.2z"
    fill="#fff8f0"
  />
</svg>
